{"title":"RAID 2018 Hindi 720p BluRay x264 ESub [MW]","magnet":"magnet:?xt=urn:btih:954fe46c8c33009339deb12f9c81803d8a2216f0&dn=RAID+2018+Hindi+720p+BluRay+x264+ESub+%5BMW%5D&tr=udp%3A%2F%2Ftracker.leechers-paradise.org%3A6969&tr=udp%3A%2F%2Fzer0day.ch%3A1337&tr=udp%3A%2F%2Fopen.demonii.com%3A1337&tr=udp%3A%2F%2Ftracker.coppersurfer.tk%3A6969&tr=udp%3A%2F%2Fexodus.desync.com%3A6969","uploader":"MFreaky","categoryP":"video","categoryS":"hd___movies","size":"1294188299","seeders":"0","leechers":"0","description":" <a href=\"https://pichub.site/image/EqE4d\" rel=\"nofollow\" target=\"_NEW\">https://pichub.site/image/EqE4d</a> <a href=\"\nhttps://pichub.site/image/EqSlv\" rel=\"nofollow\" target=\"_NEW\">\nhttps://pichub.site/image/EqSlv</a> <a href=\"\nhttps://pichub.site/image/Eqdy9\" rel=\"nofollow\" target=\"_NEW\">\nhttps://pichub.site/image/Eqdy9</a> <a href=\"\nhttps://pichub.site/image/Eq7Lu\" rel=\"nofollow\" target=\"_NEW\">\nhttps://pichub.site/image/Eq7Lu</a> <a href=\"\nhttps://pichub.site/image/EqVQR\" rel=\"nofollow\" target=\"_NEW\">\nhttps://pichub.site/image/EqVQR</a>\r\n\r\nIMDB  <a href=\"\nhttps://www.imdb.com/title/tt7363076/\" rel=\"nofollow\" target=\"_NEW\">\nhttps://www.imdb.com/title/tt7363076/</a>\r\n\r\nVideo\r\nFormat                                   : AVC\r\nFormat/Info                              : Advanced Video Codec\r\nFormat profile                           : High@L4.1\r\nFormat settings                          : CABAC / 4 Ref Frames\r\nFormat settings, CABAC                   : Yes\r\nFormat settings, RefFrames               : 4 frames\r\nCodec ID                                 : V_MPEG4/ISO/AVC\r\nDuration                                 : 2 h 0 min\r\nBit rate                                 : 1 300 kb/s\r\nWidth                                    : 1 280 pixels\r\nHeight                                   : 540 pixels\r\nDisplay aspect ratio                     : 2.40:1\r\nFrame rate mode                          : Constant\r\nFrame rate                               : 24.000 FPS\r\nColor space                              : YUV\r\nChroma subsampling                       : 4:2:0\r\nBit depth                                : 8 bits\r\nBits/(Pixel*Frame)                       : 0.078\r\nStream size                              : 1.08 GiB (90%)\r\nWriting library                          : x264 core 155 r2901 7d0ff22\r\n\r\nAudio\r\nFormat                                   : AAC\r\nFormat/Info                              : Advanced Audio Codec\r\nFormat profile                           : LC\r\nCodec ID                                 : A_AAC-2\r\nDuration                                 : 2 h 0 min\r\nBit rate                                 : 129 kb/s\r\nChannel(s)                               : 2 channels\r\nChannel positions                        : Front: L R\r\nSampling rate                            : 48.0 kHz\r\nFrame rate                               : 46.875 FPS (1024 SPF)\r\nStream size                              : 111 MiB (9%)\r\nLanguage                                 : Hindi","last_updated":"2018-10-07T12:16:34.630Z","parsed":{"xt":"urn:btih:954fe46c8c33009339deb12f9c81803d8a2216f0","dn":"RAID 2018 Hindi 720p BluRay x264 ESub [MW]","tr":["udp://exodus.desync.com:6969","udp://open.demonii.com:1337","udp://tracker.coppersurfer.tk:6969","udp://tracker.leechers-paradise.org:6969","udp://zer0day.ch:1337"],"infoHash":"954fe46c8c33009339deb12f9c81803d8a2216f0","infoHashBuffer":{"type":"Buffer","data":[149,79,228,108,140,51,0,147,57,222,177,47,156,129,128,61,138,34,22,240]},"name":"RAID 2018 Hindi 720p BluRay x264 ESub [MW]","announce":["udp://exodus.desync.com:6969","udp://open.demonii.com:1337","udp://tracker.coppersurfer.tk:6969","udp://tracker.leechers-paradise.org:6969","udp://zer0day.ch:1337"],"urlList":[]}}